<svg xmlns="http://www.w3.org/2000/svg" viewBox="0 0 512 512">
  <rect width="512" height="512" rx="96" fill="#151515"/>
  <circle cx="256" cy="128" r="52" fill="#ff6b4a"/>
  <path d="M210 190h92c18 0 32 14 32 32v110c0 18-14 32-32 32h-92c-18 0-32-14-32-32V222c0-18 14-32 32-32z" fill="#fffdf8"/>
  <path d="M156 242c-28 30-48 67-58 112" stroke="#b9f25d" stroke-width="38" stroke-linecap="round" fill="none"/>
  <path d="M356 242c28 30 48 67 58 112" stroke="#4277ff" stroke-width="38" stroke-linecap="round" fill="none"/>
  <path d="M222 360l-54 84" stroke="#1f7a48" stroke-width="42" stroke-linecap="round" fill="none"/>
  <path d="M290 360l54 84" stroke="#ffd166" stroke-width="42" stroke-linecap="round" fill="none"/>
  <path d="M174 72h164" stroke="#fffdf8" stroke-width="28" stroke-linecap="round"/>
</svg>
